<svg xmlns="http://www.w3.org/2000/svg" width="32" height="32" fill="none"><circle cx="16" cy="16" r="16" fill="url(#paint0_radial_2256_39072)"/><path fill="#fff" d="M21.686 9.55c-1.53-1.462-3.761-2.19-6.697-2.19-.87 0-1.662.026-2.377.082-.715.055-1.398.121-2.052.198v16.752c.652.079 1.311.145 1.981.198.667.055 1.398.081 2.19.081 3.06 0 5.365-.69 6.918-2.073 1.554-1.382 2.332-3.542 2.332-6.478 0-2.923-.765-5.112-2.295-6.57zm-1.994 9.216c-.248.685-.583 1.237-.997 1.635a3.308 3.308 0 01-1.467.823 7.422 7.422 0 01-1.915.235 12.147 12.147 0 01-.963-.035V10.626c.122-.011.254-.016.399-.022.264-.007.517-.01.749-.01a6 6 0 011.764.253 3.549 3.549 0 011.43.85c.414.4.75.96.997 1.656.253.707.38 1.614.38 2.696.003 1.11-.124 2.026-.377 2.717z"/><defs><radialGradient id="paint0_radial_2256_39072" cx="0" cy="0" r="1" gradientTransform="rotate(-48.483 33.909 8.217) scale(32.5871)" gradientUnits="userSpaceOnUse"><stop offset=".276" stop-color="#004C98"/><stop offset="1" stop-color="#019AD6"/></radialGradient></defs></svg>